<?xml version="1.0" standalone="no"?>
<!DOCTYPE svg PUBLIC "-//W3C//DTD SVG 20010904//EN"
 "http://www.w3.org/TR/2001/REC-SVG-20010904/DTD/svg10.dtd">
<svg version="1.0" xmlns="http://www.w3.org/2000/svg"
 width="700.000000pt" height="700.000000pt" viewBox="0 0 700.000000 700.000000"
 preserveAspectRatio="xMidYMid meet">
<metadata>
Created by potrace 1.11, written by Peter Selinger 2001-2013
</metadata>
<g transform="translate(0.000000,700.000000) scale(0.100000,-0.100000)"
fill="#000000" stroke="none">
<path d="M1690 5217 c0 -151 3 -436 7 -635 l6 -362 145 0 145 0 -7 348 c-3
191 -8 399 -11 462 -6 143 0 126 60 -185 25 -132 67 -325 93 -430 l48 -190
137 -3 136 -3 10 38 c40 149 126 519 156 673 19 102 37 188 38 193 1 4 1 -198
-1 -448 l-3 -455 57 0 56 0 -57 -61 c-158 -171 -257 -374 -290 -596 -19 -123
-19 -203 0 -323 36 -238 131 -430 307 -616 65 -70 156 -199 427 -607 189 -284
347 -517 351 -517 4 0 162 233 351 517 278 417 359 532 421 595 174 176 278
380 313 615 53 351 -58 694 -304 942 -190 192 -397 289 -693 326 l-48 6 0 58
0 58 118 6 c64 3 140 12 167 20 237 66 364 238 353 479 -7 150 -65 251 -180
309 -111 56 -139 59 -479 52 l-309 -6 0 -509 c0 -476 -1 -509 -17 -514 -15 -5
-192 -72 -215 -82 -5 -2 -8 249 -8 557 l0 561 -239 0 c-220 0 -240 -1 -245
-17 -10 -34 -84 -459 -117 -680 -19 -123 -36 -223 -39 -223 -3 0 -18 80 -33
178 -26 160 -70 417 -114 655 l-16 87 -238 0 -239 0 0 -273z m2106 -60 c57
-30 80 -119 50 -192 -8 -18 -23 -38 -34 -44 -12 -6 -75 -11 -145 -11 l-124 0
-7 125 c-4 68 -4 130 0 136 11 18 221 7 260 -14z m-137 -1248 c125 -43 249
-168 286 -292 81 -264 -59 -522 -324 -601 -153 -45 -332 3 -452 123 -159 160
-183 403 -57 591 68 102 174 173 303 200 59 13 172 3 244 -21z"/>
<path d="M4770 5474 c-237 -63 -412 -248 -466 -492 -23 -104 -15 -301 16 -392
68 -203 194 -327 380 -375 52 -14 93 -16 205 -12 152 6 242 26 344 75 l56 28
0 77 c0 42 -2 190 -3 327 l-2 250 -250 0 -250 0 0 -145 0 -145 100 0 100 0 0
-100 0 -100 -70 0 c-126 0 -221 52 -269 148 -70 141 -69 336 2 449 15 22 44
45 87 66 63 31 68 32 190 31 83 -1 159 -9 225 -23 54 -11 101 -19 103 -17 2 2
10 62 17 132 14 121 14 130 -3 143 -30 23 -122 61 -186 76 -78 19 -254 18
-326 -1z"/>
</g>
</svg>
